<svg width="32" height="32" viewBox="0 0 14 17" fill="none" xmlns="http://www.w3.org/2000/svg">
<path d="M11.5 17C12.0304 17 12.5391 16.7893 12.9142 16.4142C13.2893 16.0391 13.5 15.5304 13.5 15V2C13.5 1.46957 13.2893 0.960859 12.9142 0.585786C12.5391 0.210714 12.0304 0 11.5 0H2.5C1.96957 0 1.46086 0.210714 1.08579 0.585786C0.710714 0.960859 0.5 1.46957 0.5 2V15C0.5 15.5304 0.710714 16.0391 1.08579 16.4142C1.46086 16.7893 1.96957 17 2.5 17H11.5ZM7.5 2H11.5V7H7.5V2ZM2.5 2H6.5V3H2.5V2ZM2.5 4H6.5V5H2.5V4ZM2.5 6H6.5V7H2.5V6ZM2.5 8H11.5V9H2.5V8ZM2.5 10H11.5V11H2.5V10ZM2.5 12H11.5V13H2.5V12Z" fill="black" fill-opacity="0.6"/>
</svg>
