<svg width="19" height="19" viewBox="0 0 19 19" fill="none" xmlns="http://www.w3.org/2000/svg">
<path d="M5.57387 18.8883C5.07269 18.8883 4.64349 18.7097 4.28629 18.3525C3.92908 17.9953 3.75079 17.5664 3.75139 17.0658C3.75139 16.5647 3.93 16.1355 4.2872 15.7783C4.6444 15.4211 5.07329 15.2428 5.57387 15.2434C6.07505 15.2434 6.50424 15.422 6.86144 15.7792C7.21865 16.1364 7.39695 16.5653 7.39634 17.0658C7.39634 17.567 7.21774 17.9962 6.86053 18.3534C6.50333 18.7106 6.07444 18.8889 5.57387 18.8883ZM14.6862 18.8883C14.1851 18.8883 13.7559 18.7097 13.3987 18.3525C13.0415 17.9953 12.8632 17.5664 12.8638 17.0658C12.8638 16.5647 13.0424 16.1355 13.3996 15.7783C13.7568 15.4211 14.1857 15.2428 14.6862 15.2434C15.1874 15.2434 15.6166 15.422 15.9738 15.7792C16.331 16.1364 16.5093 16.5653 16.5087 17.0658C16.5087 17.567 16.3301 17.9962 15.9729 18.3534C15.6157 18.7106 15.1868 18.8889 14.6862 18.8883ZM4.79932 4.30853L6.98628 8.86471H13.3649L15.8708 4.30853H4.79932ZM5.57387 14.3321C4.89044 14.3321 4.37407 14.032 4.02476 13.4318C3.67546 12.8316 3.66027 12.2357 3.9792 11.644L5.20937 9.41145L1.92892 2.48605H0.994901C0.736718 2.48605 0.524096 2.39857 0.357035 2.22362C0.189975 2.04866 0.106445 1.83239 0.106445 1.57481C0.106445 1.31663 0.193924 1.10006 0.368882 0.925102C0.543839 0.750145 0.760106 0.66297 1.01768 0.663577H2.49844C2.6655 0.663577 2.82497 0.709139 2.97684 0.800263C3.12871 0.891387 3.24262 1.02048 3.31856 1.18754L3.93364 2.48605H17.3744C17.7844 2.48605 18.0654 2.63792 18.2173 2.94167C18.3692 3.24542 18.3616 3.56435 18.1945 3.89847L14.9596 9.73039C14.7925 10.0341 14.5723 10.2695 14.299 10.4366C14.0256 10.6037 13.7143 10.6872 13.3649 10.6872H6.57623L5.57387 12.5097H15.6203C15.8784 12.5097 16.0911 12.5971 16.2581 12.7721C16.4252 12.9471 16.5087 13.1633 16.5087 13.4209C16.5087 13.6791 16.4212 13.8956 16.2463 14.0706C16.0713 14.2456 15.8551 14.3327 15.5975 14.3321H5.57387Z" fill="#29ABFF"/>
</svg>
