<svg width="37" height="37" viewBox="0 0 37 37" fill="none" xmlns="http://www.w3.org/2000/svg">
<g clip-path="url(#clip0_798_1778)">
<rect width="37" height="37" fill="white"/>
<path d="M34.2251 2.3125L21.121 19.5792C20.8126 20.0417 20.6585 20.5042 20.6585 20.9667V32.9917L16.496 34.225V20.9667C16.496 20.5042 16.3418 20.0417 16.0335 19.5792L2.77513 2.3125H34.2251ZM35.1501 0H1.85013C0.308467 0 -0.462367 1.69583 0.462633 2.92917L14.1835 21.1208V35.9208C14.1835 36.5375 14.646 37 15.2626 37C15.4168 37 15.4168 37 15.571 37L22.2001 34.9958C22.6626 34.8417 22.971 34.3792 22.971 33.9167V21.1208L36.6918 2.92917C37.4626 1.69583 36.6918 0 35.1501 0Z" fill="black" fill-opacity="0.6"/>
</g>
<defs>
<clipPath id="clip0_798_1778">
<rect width="37" height="37" fill="white"/>
</clipPath>
</defs>
</svg>
