<svg width="32" height="32" viewBox="0 0 15 16" fill="none" xmlns="http://www.w3.org/2000/svg">
<path d="M2.50016 15.5003C2.04183 15.5003 1.64961 15.3373 1.3235 15.0112C0.996829 14.6845 0.833496 14.292 0.833496 13.8337V6.33366C0.833496 6.06977 0.892663 5.81977 1.011 5.58366C1.12877 5.34755 1.29183 5.1531 1.50016 5.00033L6.50016 1.25033C6.65294 1.13921 6.81266 1.05588 6.97933 1.00033C7.146 0.94477 7.31961 0.916992 7.50016 0.916992C7.68072 0.916992 7.85433 0.94477 8.021 1.00033C8.18766 1.05588 8.34738 1.13921 8.50016 1.25033L13.5002 5.00033C13.7085 5.1531 13.8718 5.34755 13.9902 5.58366C14.1079 5.81977 14.1668 6.06977 14.1668 6.33366V13.8337C14.1668 14.292 14.0038 14.6845 13.6777 15.0112C13.351 15.3373 12.9585 15.5003 12.5002 15.5003H9.16683V9.66699H5.8335V15.5003H2.50016Z" fill="black" fill-opacity="0.6"/>
</svg>
