<svg width="40" height="40" viewBox="0 0 40 40" fill="none" xmlns="http://www.w3.org/2000/svg">
<path d="M12.9997 3.33337H26.9997C32.333 3.33337 36.6663 7.66671 36.6663 13V27C36.6663 29.5638 35.6479 32.0226 33.835 33.8354C32.0222 35.6483 29.5634 36.6667 26.9997 36.6667H12.9997C7.66634 36.6667 3.33301 32.3334 3.33301 27V13C3.33301 10.4363 4.35146 7.97753 6.16431 6.16468C7.97716 4.35182 10.4359 3.33337 12.9997 3.33337ZM12.6663 6.66671C11.075 6.66671 9.54892 7.29885 8.4237 8.42407C7.29848 9.54928 6.66634 11.0754 6.66634 12.6667V27.3334C6.66634 30.65 9.34967 33.3334 12.6663 33.3334H27.333C28.9243 33.3334 30.4504 32.7012 31.5756 31.576C32.7009 30.4508 33.333 28.9247 33.333 27.3334V12.6667C33.333 9.35004 30.6497 6.66671 27.333 6.66671H12.6663ZM28.7497 9.16671C29.3022 9.16671 29.8321 9.3862 30.2228 9.7769C30.6135 10.1676 30.833 10.6975 30.833 11.25C30.833 11.8026 30.6135 12.3325 30.2228 12.7232C29.8321 13.1139 29.3022 13.3334 28.7497 13.3334C28.1971 13.3334 27.6672 13.1139 27.2765 12.7232C26.8858 12.3325 26.6663 11.8026 26.6663 11.25C26.6663 10.6975 26.8858 10.1676 27.2765 9.7769C27.6672 9.3862 28.1971 9.16671 28.7497 9.16671ZM19.9997 11.6667C22.2098 11.6667 24.3294 12.5447 25.8922 14.1075C27.455 15.6703 28.333 17.7899 28.333 20C28.333 22.2102 27.455 24.3298 25.8922 25.8926C24.3294 27.4554 22.2098 28.3334 19.9997 28.3334C17.7895 28.3334 15.6699 27.4554 14.1071 25.8926C12.5443 24.3298 11.6663 22.2102 11.6663 20C11.6663 17.7899 12.5443 15.6703 14.1071 14.1075C15.6699 12.5447 17.7895 11.6667 19.9997 11.6667ZM19.9997 15C18.6736 15 17.4018 15.5268 16.4641 16.4645C15.5265 17.4022 14.9997 18.674 14.9997 20C14.9997 21.3261 15.5265 22.5979 16.4641 23.5356C17.4018 24.4733 18.6736 25 19.9997 25C21.3258 25 22.5975 24.4733 23.5352 23.5356C24.4729 22.5979 24.9997 21.3261 24.9997 20C24.9997 18.674 24.4729 17.4022 23.5352 16.4645C22.5975 15.5268 21.3258 15 19.9997 15Z" fill="#F6FBFF"/>
</svg>
