<svg width="32" height="32" viewBox="0 0 21 20" fill="none" xmlns="http://www.w3.org/2000/svg">
<g clip-path="url(#clip0_224_47)">
<path d="M8.625 1.25C8.12772 1.25 7.65081 1.44754 7.29917 1.79917C6.94754 2.15081 6.75 2.62772 6.75 3.125V3.75H2.375C1.87772 3.75 1.40081 3.94754 1.04917 4.29917C0.697544 4.65081 0.5 5.12772 0.5 5.625L0.5 7.355L10.0175 9.8925C10.3337 9.97669 10.6663 9.97669 10.9825 9.8925L20.5 7.355V5.625C20.5 5.12772 20.3025 4.65081 19.9508 4.29917C19.5992 3.94754 19.1223 3.75 18.625 3.75H14.25V3.125C14.25 2.62772 14.0525 2.15081 13.7008 1.79917C13.3492 1.44754 12.8723 1.25 12.375 1.25H8.625ZM8.625 2.5H12.375C12.5408 2.5 12.6997 2.56585 12.8169 2.68306C12.9342 2.80027 13 2.95924 13 3.125V3.75H8V3.125C8 2.95924 8.06585 2.80027 8.18306 2.68306C8.30027 2.56585 8.45924 2.5 8.625 2.5Z" fill="black" fill-opacity="0.6"/>
<path d="M0.5 15.625C0.5 16.1223 0.697544 16.5992 1.04917 16.9508C1.40081 17.3025 1.87772 17.5 2.375 17.5H18.625C19.1223 17.5 19.5992 17.3025 19.9508 16.9508C20.3025 16.5992 20.5 16.1223 20.5 15.625V8.5625L10.6612 11.1837C10.5556 11.212 10.4444 11.212 10.3387 11.1837L0.5 8.5625V15.625Z" fill="black" fill-opacity="0.6"/>
</g>
<defs>
<clipPath id="clip0_224_47">
<rect width="20" height="20" fill="white" transform="translate(0.5)"/>
</clipPath>
</defs>
</svg>
