<svg width="32" height="20" viewBox="0 0 32 28" fill="none" xmlns="http://www.w3.org/2000/svg">
<path d="M15.9544 27.1374C15.5323 27.1384 15.1142 27.056 14.7241 26.8948C14.334 26.7337 13.9796 26.497 13.6814 26.1983L2.69 15.207C1.82172 14.3292 1.13679 13.2875 0.675104 12.1425C0.21342 10.9974 -0.0157846 9.77194 0.000844122 8.53743C0.00921008 7.40611 0.24069 6.28755 0.682024 5.24583C1.12336 4.20411 1.76587 3.25969 2.57277 2.46667C3.37967 1.67365 4.33509 1.04761 5.38431 0.624414C6.43353 0.201217 7.55594 -0.0108239 8.68724 0.000436351C9.83879 -0.0111631 10.9809 0.208607 12.046 0.646712C13.111 1.08482 14.0772 1.73233 14.8872 2.55086L15.9544 3.61799L16.8294 2.74295C18.3404 1.19195 20.3622 0.241087 22.5205 0.066464C24.6787 -0.108158 26.8271 0.505296 28.5678 1.79321C29.5586 2.55625 30.3755 3.52165 30.9641 4.6251C31.5527 5.72855 31.8994 6.94474 31.9812 8.19267C32.0629 9.44059 31.8779 10.6916 31.4384 11.8625C30.9989 13.0333 30.3149 14.097 29.4321 14.9829L18.2273 26.1983C17.9291 26.497 17.5747 26.7337 17.1846 26.8948C16.7945 27.056 16.3764 27.1384 15.9544 27.1374ZM8.64455 2.12401C6.94838 2.12228 5.31807 2.78053 4.0986 3.95947C3.47689 4.55764 2.98248 5.27529 2.64507 6.06931C2.30765 6.86334 2.13419 7.71737 2.13509 8.58012C2.12574 9.52913 2.30486 10.4706 2.66206 11.3498C3.01926 12.2291 3.54744 13.0287 4.21599 13.7023L15.2074 24.6937C15.3066 24.7937 15.4246 24.8731 15.5546 24.9273C15.6847 24.9815 15.8242 25.0093 15.965 25.0093C16.1059 25.0093 16.2454 24.9815 16.3754 24.9273C16.5055 24.8731 16.6235 24.7937 16.7227 24.6937L27.9382 13.4675C28.5965 12.7953 29.1051 11.9914 29.4307 11.1086C29.7562 10.2258 29.8913 9.28406 29.827 8.34535C29.77 7.39701 29.5088 6.47218 29.0612 5.63416C28.6137 4.79614 27.9903 4.06471 27.2339 3.48993C25.9065 2.51127 24.2686 2.04852 22.6254 2.18791C20.9821 2.3273 19.4456 3.05932 18.302 4.24759L16.712 5.88029C16.6128 5.98031 16.4948 6.0597 16.3647 6.11388C16.2347 6.16805 16.0952 6.19595 15.9544 6.19595C15.8135 6.19595 15.674 6.16805 15.544 6.11388C15.4139 6.0597 15.2959 5.98031 15.1967 5.88029L13.3826 4.06618C12.1331 2.82754 10.4466 2.12996 8.68724 2.12401H8.64455Z" fill="black" fill-opacity="0.6"/>
</svg>
