<svg width="13" height="17" viewBox="0 0 13 17" fill="none" xmlns="http://www.w3.org/2000/svg">
<path d="M6.5 16.5712L6.15179 16.1858C5.91965 15.9055 0 9.63441 0 5.88575C0 2.62757 2.94048 0 6.5 0C10.0595 0 13 2.66261 13 5.88575C13 9.63441 7.08035 15.9406 6.84821 16.1858L6.5 16.5712ZM6.5 0.805793C3.40476 0.805793 0.928575 3.08301 0.928575 5.85072C0.928575 8.79359 5.22321 13.8035 6.5 15.2399C7.77679 13.8035 12.0714 8.82862 12.0714 5.85072C12.0714 3.08301 9.59524 0.805793 6.5 0.805793Z" fill="black" fill-opacity="0.6"/>
<path d="M6.49963 8.12806C5.14546 8.12806 4.02344 7.11207 4.02344 5.88587C4.02344 4.65968 5.14546 3.64368 6.49963 3.64368C7.85379 3.64368 8.97581 4.65968 8.97581 5.88587C8.97581 7.11207 7.85379 8.12806 6.49963 8.12806ZM6.49963 4.48451C5.64843 4.48451 4.95201 5.11512 4.95201 5.88587C4.95201 6.65663 5.64843 7.28724 6.49963 7.28724C7.35082 7.28724 8.04724 6.65663 8.04724 5.88587C8.04724 5.11512 7.35082 4.48451 6.49963 4.48451Z" fill="black" fill-opacity="0.6"/>
</svg>
