<svg width="21" height="20" viewBox="0 0 21 20" fill="none" xmlns="http://www.w3.org/2000/svg">
<g clip-path="url(#clip0_224_20)">
<path d="M0.5 8V16C0.5 16.5304 0.710714 17.0391 1.08579 17.4142C1.46086 17.7893 1.96957 18 2.5 18H18.5C19.0304 18 19.5391 17.7893 19.9142 17.4142C20.2893 17.0391 20.5 16.5304 20.5 16V8L10.5 12L0.5 8Z" fill="black" fill-opacity="0.6"/>
<path d="M2.5 2C1.96957 2 1.46086 2.21071 1.08579 2.58579C0.710714 2.96086 0.5 3.46957 0.5 4L0.5 6L10.5 10L20.5 6V4C20.5 3.46957 20.2893 2.96086 19.9142 2.58579C19.5391 2.21071 19.0304 2 18.5 2H2.5Z" fill="black" fill-opacity="0.6"/>
</g>
<defs>
<clipPath id="clip0_224_20">
<rect width="20" height="20" fill="white" transform="translate(0.5)"/>
</clipPath>
</defs>
</svg>
