<svg width="20" height="17" viewBox="0 0 20 17" fill="none" xmlns="http://www.w3.org/2000/svg">
<path d="M3.75 0.6875C2.9212 0.6875 2.12634 1.01674 1.54029 1.60279C0.95424 2.18884 0.625 2.9837 0.625 3.8125V4.12656L10 9.175L19.375 4.12813V3.8125C19.375 2.9837 19.0458 2.18884 18.4597 1.60279C17.8737 1.01674 17.0788 0.6875 16.25 0.6875H3.75ZM19.375 5.90156L10.3703 10.75C10.2565 10.8113 10.1293 10.8433 10 10.8433C9.87074 10.8433 9.7435 10.8113 9.62969 10.75L0.625 5.90156V13.1875C0.625 14.0163 0.95424 14.8112 1.54029 15.3972C2.12634 15.9833 2.9212 16.3125 3.75 16.3125H16.25C17.0788 16.3125 17.8737 15.9833 18.4597 15.3972C19.0458 14.8112 19.375 14.0163 19.375 13.1875V5.90156Z" fill="white"/>
</svg>
