<svg width="28" height="28" viewBox="0 0 28 28" fill="none" xmlns="http://www.w3.org/2000/svg">
<path d="M15.1063 3.13026V3.91626L15.8701 4.10195C19.3246 4.94184 21.4253 8.13042 21.4253 12.2051V19.3846V19.7923L21.7103 20.0838L24.2337 22.6641V22.6923H3.7663V22.6641L6.28968 20.0838L6.57472 19.7923V19.3846V12.2051C6.57472 8.11515 8.66195 4.94217 12.1292 4.10214L12.8937 3.91691V3.13026V2.15385C12.8937 1.49318 13.4077 1 14 1C14.5923 1 15.1063 1.49318 15.1063 2.15385V3.13026ZM14.3466 26.966L14.3393 26.9676L14.332 26.9693C14.2483 26.9891 14.1479 27 14 27C13.3659 27 12.7939 26.6571 12.4662 26.1282H15.5231C15.2568 26.5568 14.8371 26.8579 14.3466 26.966ZM1.08161 10.4872C1.49258 6.94023 3.20018 3.80636 5.71531 1.57402L6.30519 2.1772C3.93035 4.2479 2.31243 7.17472 1.8954 10.4872H1.08161ZM21.7026 2.17807L22.2858 1.57757C24.7883 3.80941 26.4945 6.94171 26.9152 10.4872H26.1044C25.6856 7.17296 24.0586 4.24726 21.7026 2.17807Z" stroke="black" stroke-opacity="0.6" stroke-width="2"/>
</svg>
