<svg width="106" height="86" viewBox="0 0 106 86" fill="none" xmlns="http://www.w3.org/2000/svg">
<path d="M47.7915 19.427V30.5729C47.7915 31.3715 48.1561 31.9791 48.8853 32.3958C49.6144 32.8125 50.3262 32.7777 51.0207 32.2916L59.6665 26.7708C60.3262 26.3541 60.6561 25.7638 60.6561 25C60.6561 24.2361 60.3262 23.6458 59.6665 23.2291L51.0207 17.7083C50.3262 17.2222 49.6144 17.1875 48.8853 17.6041C48.1561 18.0208 47.7915 18.6284 47.7915 19.427ZM52.9998 45.8333C50.1179 45.8333 47.4096 45.2861 44.8748 44.1916C42.3401 43.0972 40.1353 41.6132 38.2603 39.7395C36.3853 37.8645 34.9012 35.6597 33.8082 33.125C32.7151 30.5902 32.1679 27.8819 32.1665 25C32.1665 22.118 32.7137 19.4097 33.8082 16.875C34.9026 14.3402 36.3866 12.1354 38.2603 10.2604C40.1353 8.38538 42.3401 6.90135 44.8748 5.80829C47.4096 4.71524 50.1179 4.16801 52.9998 4.16663C55.8818 4.16663 58.5901 4.71385 61.1248 5.80829C63.6596 6.90274 65.8644 8.38677 67.7394 10.2604C69.6144 12.1354 71.0991 14.3402 72.1936 16.875C73.288 19.4097 73.8346 22.118 73.8332 25C73.8332 27.8819 73.2859 30.5902 72.1915 33.125C71.0971 35.6597 69.613 37.8645 67.7394 39.7395C65.8644 41.6145 63.6596 43.0993 61.1248 44.1937C58.5901 45.2882 55.8818 45.8347 52.9998 45.8333Z" fill="#F6FBFF"/>
<path d="M4.08398 78.959H1.91016V77.5879H4.08398C4.41992 77.5879 4.69336 77.5332 4.9043 77.4238C5.11523 77.3105 5.26953 77.1543 5.36719 76.9551C5.46484 76.7559 5.51367 76.5312 5.51367 76.2812C5.51367 76.0273 5.46484 75.791 5.36719 75.5723C5.26953 75.3535 5.11523 75.1777 4.9043 75.0449C4.69336 74.9121 4.41992 74.8457 4.08398 74.8457H2.51953V82H0.761719V73.4688H4.08398C4.75195 73.4688 5.32422 73.5898 5.80078 73.832C6.28125 74.0703 6.64844 74.4004 6.90234 74.8223C7.15625 75.2441 7.2832 75.7266 7.2832 76.2695C7.2832 76.8203 7.15625 77.2969 6.90234 77.6992C6.64844 78.1016 6.28125 78.4121 5.80078 78.6309C5.32422 78.8496 4.75195 78.959 4.08398 78.959ZM10.0781 77.043V82H8.39062V75.6602H9.97852L10.0781 77.043ZM11.9883 75.6191L11.959 77.1836C11.877 77.1719 11.7773 77.1621 11.6602 77.1543C11.5469 77.1426 11.4434 77.1367 11.3496 77.1367C11.1113 77.1367 10.9043 77.168 10.7285 77.2305C10.5566 77.2891 10.4121 77.377 10.2949 77.4941C10.1816 77.6113 10.0957 77.7539 10.0371 77.9219C9.98242 78.0898 9.95117 78.2812 9.94336 78.4961L9.60352 78.3906C9.60352 77.9805 9.64453 77.6035 9.72656 77.2598C9.80859 76.9121 9.92773 76.6094 10.084 76.3516C10.2441 76.0938 10.4395 75.8945 10.6699 75.7539C10.9004 75.6133 11.1641 75.543 11.4609 75.543C11.5547 75.543 11.6504 75.5508 11.748 75.5664C11.8457 75.5781 11.9258 75.5957 11.9883 75.6191ZM15.5859 82.1172C15.0938 82.1172 14.6523 82.0391 14.2617 81.8828C13.8711 81.7227 13.5391 81.502 13.2656 81.2207C12.9961 80.9395 12.7891 80.6133 12.6445 80.2422C12.5 79.8672 12.4277 79.4688 12.4277 79.0469V78.8125C12.4277 78.332 12.4961 77.8926 12.6328 77.4941C12.7695 77.0957 12.9648 76.75 13.2188 76.457C13.4766 76.1641 13.7891 75.9395 14.1562 75.7832C14.5234 75.623 14.9375 75.543 15.3984 75.543C15.8477 75.543 16.2461 75.6172 16.5938 75.7656C16.9414 75.9141 17.2324 76.125 17.4668 76.3984C17.7051 76.6719 17.8848 77 18.0059 77.3828C18.127 77.7617 18.1875 78.1836 18.1875 78.6484V79.3516H13.1484V78.2266H16.5293V78.0977C16.5293 77.8633 16.4863 77.6543 16.4004 77.4707C16.3184 77.2832 16.1934 77.1348 16.0254 77.0254C15.8574 76.916 15.6426 76.8613 15.3809 76.8613C15.1582 76.8613 14.9668 76.9102 14.8066 77.0078C14.6465 77.1055 14.5156 77.2422 14.4141 77.418C14.3164 77.5938 14.2422 77.8008 14.1914 78.0391C14.1445 78.2734 14.1211 78.5312 14.1211 78.8125V79.0469C14.1211 79.3008 14.1562 79.5352 14.2266 79.75C14.3008 79.9648 14.4043 80.1504 14.5371 80.3066C14.6738 80.4629 14.8379 80.584 15.0293 80.6699C15.2246 80.7559 15.4453 80.7988 15.6914 80.7988C15.9961 80.7988 16.2793 80.7402 16.541 80.623C16.8066 80.502 17.0352 80.3203 17.2266 80.0781L18.0469 80.9688C17.9141 81.1602 17.7324 81.3438 17.502 81.5195C17.2754 81.6953 17.002 81.8398 16.6816 81.9531C16.3613 82.0625 15.9961 82.1172 15.5859 82.1172ZM21.2227 80.7695L22.6289 75.6602H24.3926L22.2539 82H21.1875L21.2227 80.7695ZM20.2559 75.6602L21.668 80.7754L21.6973 82H20.625L18.4863 75.6602H20.2559ZM26.9297 75.6602V82H25.2363V75.6602H26.9297ZM25.1309 74.0078C25.1309 73.7617 25.2168 73.5586 25.3887 73.3984C25.5605 73.2383 25.791 73.1582 26.0801 73.1582C26.3652 73.1582 26.5938 73.2383 26.7656 73.3984C26.9414 73.5586 27.0293 73.7617 27.0293 74.0078C27.0293 74.2539 26.9414 74.457 26.7656 74.6172C26.5938 74.7773 26.3652 74.8574 26.0801 74.8574C25.791 74.8574 25.5605 74.7773 25.3887 74.6172C25.2168 74.457 25.1309 74.2539 25.1309 74.0078ZM31.2422 82.1172C30.75 82.1172 30.3086 82.0391 29.918 81.8828C29.5273 81.7227 29.1953 81.502 28.9219 81.2207C28.6523 80.9395 28.4453 80.6133 28.3008 80.2422C28.1562 79.8672 28.084 79.4688 28.084 79.0469V78.8125C28.084 78.332 28.1523 77.8926 28.2891 77.4941C28.4258 77.0957 28.6211 76.75 28.875 76.457C29.1328 76.1641 29.4453 75.9395 29.8125 75.7832C30.1797 75.623 30.5938 75.543 31.0547 75.543C31.5039 75.543 31.9023 75.6172 32.25 75.7656C32.5977 75.9141 32.8887 76.125 33.123 76.3984C33.3613 76.6719 33.541 77 33.6621 77.3828C33.7832 77.7617 33.8438 78.1836 33.8438 78.6484V79.3516H28.8047V78.2266H32.1855V78.0977C32.1855 77.8633 32.1426 77.6543 32.0566 77.4707C31.9746 77.2832 31.8496 77.1348 31.6816 77.0254C31.5137 76.916 31.2988 76.8613 31.0371 76.8613C30.8145 76.8613 30.623 76.9102 30.4629 77.0078C30.3027 77.1055 30.1719 77.2422 30.0703 77.418C29.9727 77.5938 29.8984 77.8008 29.8477 78.0391C29.8008 78.2734 29.7773 78.5312 29.7773 78.8125V79.0469C29.7773 79.3008 29.8125 79.5352 29.8828 79.75C29.957 79.9648 30.0605 80.1504 30.1934 80.3066C30.3301 80.4629 30.4941 80.584 30.6855 80.6699C30.8809 80.7559 31.1016 80.7988 31.3477 80.7988C31.6523 80.7988 31.9355 80.7402 32.1973 80.623C32.4629 80.502 32.6914 80.3203 32.8828 80.0781L33.7031 80.9688C33.5703 81.1602 33.3887 81.3438 33.1582 81.5195C32.9316 81.6953 32.6582 81.8398 32.3379 81.9531C32.0176 82.0625 31.6523 82.1172 31.2422 82.1172ZM36.6152 80.3594L37.9336 75.6602H39.0059L38.6602 77.5059L37.3418 82H36.4453L36.6152 80.3594ZM35.9473 75.6602L36.8906 80.3535L36.9785 82H35.9238L34.3184 75.6602H35.9473ZM40.2129 80.2773L41.1328 75.6602H42.7676L41.1621 82H40.1133L40.2129 80.2773ZM39.1523 75.6602L40.4648 80.3242L40.6465 82H39.7441L38.4258 77.5117L38.0918 75.6602H39.1523ZM49.7109 75.6602V76.8555H46.0195V75.6602H49.7109ZM46.9336 74.0957H48.6211V80.0898C48.6211 80.2734 48.6445 80.4141 48.6914 80.5117C48.7422 80.6094 48.8164 80.6777 48.9141 80.7168C49.0117 80.752 49.1348 80.7695 49.2832 80.7695C49.3887 80.7695 49.4824 80.7656 49.5645 80.7578C49.6504 80.7461 49.7227 80.7344 49.7812 80.7227L49.7871 81.9648C49.6426 82.0117 49.4863 82.0488 49.3184 82.0762C49.1504 82.1035 48.9648 82.1172 48.7617 82.1172C48.3906 82.1172 48.0664 82.0566 47.7891 81.9355C47.5156 81.8105 47.3047 81.6113 47.1562 81.3379C47.0078 81.0645 46.9336 80.7051 46.9336 80.2598V74.0957ZM52.3184 73V82H50.6309V73H52.3184ZM52.0781 78.6074H51.6152C51.6191 78.166 51.6777 77.7598 51.791 77.3887C51.9043 77.0137 52.0664 76.6895 52.2773 76.416C52.4883 76.1387 52.7402 75.9238 53.0332 75.7715C53.3301 75.6191 53.6582 75.543 54.0176 75.543C54.3301 75.543 54.6133 75.5879 54.8672 75.6777C55.125 75.7637 55.3457 75.9043 55.5293 76.0996C55.7168 76.291 55.8613 76.543 55.9629 76.8555C56.0645 77.168 56.1152 77.5469 56.1152 77.9922V82H54.416V77.9805C54.416 77.6992 54.375 77.4785 54.293 77.3184C54.2148 77.1543 54.0996 77.0391 53.9473 76.9727C53.7988 76.9023 53.6152 76.8672 53.3965 76.8672C53.1543 76.8672 52.9473 76.9121 52.7754 77.002C52.6074 77.0918 52.4727 77.2168 52.3711 77.377C52.2695 77.5332 52.1953 77.7168 52.1484 77.9277C52.1016 78.1387 52.0781 78.3652 52.0781 78.6074ZM59.1797 75.6602V82H57.4863V75.6602H59.1797ZM57.3809 74.0078C57.3809 73.7617 57.4668 73.5586 57.6387 73.3984C57.8105 73.2383 58.041 73.1582 58.3301 73.1582C58.6152 73.1582 58.8438 73.2383 59.0156 73.3984C59.1914 73.5586 59.2793 73.7617 59.2793 74.0078C59.2793 74.2539 59.1914 74.457 59.0156 74.6172C58.8438 74.7773 58.6152 74.8574 58.3301 74.8574C58.041 74.8574 57.8105 74.7773 57.6387 74.6172C57.4668 74.457 57.3809 74.2539 57.3809 74.0078ZM64.002 80.248C64.002 80.127 63.9668 80.0176 63.8965 79.9199C63.8262 79.8223 63.6953 79.7324 63.5039 79.6504C63.3164 79.5645 63.0449 79.4863 62.6895 79.416C62.3691 79.3457 62.0703 79.2578 61.793 79.1523C61.5195 79.043 61.2812 78.9121 61.0781 78.7598C60.8789 78.6074 60.7227 78.4277 60.6094 78.2207C60.4961 78.0098 60.4395 77.7695 60.4395 77.5C60.4395 77.2344 60.4961 76.9844 60.6094 76.75C60.7266 76.5156 60.8926 76.3086 61.1074 76.1289C61.3262 75.9453 61.5918 75.8027 61.9043 75.7012C62.2207 75.5957 62.5762 75.543 62.9707 75.543C63.5215 75.543 63.9941 75.6309 64.3887 75.8066C64.7871 75.9824 65.0918 76.2246 65.3027 76.5332C65.5176 76.8379 65.625 77.1855 65.625 77.5762H63.9375C63.9375 77.4121 63.9023 77.2656 63.832 77.1367C63.7656 77.0039 63.6602 76.9004 63.5156 76.8262C63.375 76.748 63.1914 76.709 62.9648 76.709C62.7773 76.709 62.6152 76.7422 62.4785 76.8086C62.3418 76.8711 62.2363 76.957 62.1621 77.0664C62.0918 77.1719 62.0566 77.2891 62.0566 77.418C62.0566 77.5156 62.0762 77.6035 62.1152 77.6816C62.1582 77.7559 62.2266 77.8242 62.3203 77.8867C62.4141 77.9492 62.5352 78.0078 62.6836 78.0625C62.8359 78.1133 63.0234 78.1602 63.2461 78.2031C63.7031 78.2969 64.1113 78.4199 64.4707 78.5723C64.8301 78.7207 65.1152 78.9238 65.3262 79.1816C65.5371 79.4355 65.6426 79.7695 65.6426 80.1836C65.6426 80.4648 65.5801 80.7227 65.4551 80.957C65.3301 81.1914 65.1504 81.3965 64.916 81.5723C64.6816 81.7441 64.4004 81.8789 64.0723 81.9766C63.748 82.0703 63.3828 82.1172 62.9766 82.1172C62.3867 82.1172 61.8867 82.0117 61.4766 81.8008C61.0703 81.5898 60.7617 81.3223 60.5508 80.998C60.3438 80.6699 60.2402 80.334 60.2402 79.9902H61.8398C61.8477 80.2207 61.9062 80.4062 62.0156 80.5469C62.1289 80.6875 62.2715 80.7891 62.4434 80.8516C62.6191 80.9141 62.8086 80.9453 63.0117 80.9453C63.2305 80.9453 63.4121 80.916 63.5566 80.8574C63.7012 80.7949 63.8105 80.7129 63.8848 80.6113C63.9629 80.5059 64.002 80.3848 64.002 80.248ZM72.3457 80.7988C72.5527 80.7988 72.7363 80.7598 72.8965 80.6816C73.0566 80.5996 73.1816 80.4863 73.2715 80.3418C73.3652 80.1934 73.4141 80.0195 73.418 79.8203H75.0059C75.002 80.2656 74.8828 80.6621 74.6484 81.0098C74.4141 81.3535 74.0996 81.625 73.7051 81.8242C73.3105 82.0195 72.8691 82.1172 72.3809 82.1172C71.8887 82.1172 71.459 82.0352 71.0918 81.8711C70.7285 81.707 70.4258 81.4805 70.1836 81.1914C69.9414 80.8984 69.7598 80.5586 69.6387 80.1719C69.5176 79.7812 69.457 79.3633 69.457 78.918V78.748C69.457 78.2988 69.5176 77.8809 69.6387 77.4941C69.7598 77.1035 69.9414 76.7637 70.1836 76.4746C70.4258 76.1816 70.7285 75.9531 71.0918 75.7891C71.4551 75.625 71.8809 75.543 72.3691 75.543C72.8887 75.543 73.3438 75.6426 73.7344 75.8418C74.1289 76.041 74.4375 76.3262 74.6602 76.6973C74.8867 77.0645 75.002 77.5 75.0059 78.0039H73.418C73.4141 77.793 73.3691 77.6016 73.2832 77.4297C73.2012 77.2578 73.0801 77.1211 72.9199 77.0195C72.7637 76.9141 72.5703 76.8613 72.3398 76.8613C72.0938 76.8613 71.8926 76.9141 71.7363 77.0195C71.5801 77.1211 71.459 77.2617 71.373 77.4414C71.2871 77.6172 71.2266 77.8184 71.1914 78.0449C71.1602 78.2676 71.1445 78.502 71.1445 78.748V78.918C71.1445 79.1641 71.1602 79.4004 71.1914 79.627C71.2227 79.8535 71.2812 80.0547 71.3672 80.2305C71.457 80.4062 71.5801 80.5449 71.7363 80.6465C71.8926 80.748 72.0957 80.7988 72.3457 80.7988ZM75.7148 78.8945V78.7715C75.7148 78.3066 75.7812 77.8789 75.9141 77.4883C76.0469 77.0938 76.2402 76.752 76.4941 76.4629C76.748 76.1738 77.0605 75.9492 77.4316 75.7891C77.8027 75.625 78.2285 75.543 78.709 75.543C79.1895 75.543 79.6172 75.625 79.9922 75.7891C80.3672 75.9492 80.6816 76.1738 80.9355 76.4629C81.1934 76.752 81.3887 77.0938 81.5215 77.4883C81.6543 77.8789 81.7207 78.3066 81.7207 78.7715V78.8945C81.7207 79.3555 81.6543 79.7832 81.5215 80.1777C81.3887 80.5684 81.1934 80.9102 80.9355 81.2031C80.6816 81.4922 80.3691 81.7168 79.998 81.877C79.627 82.0371 79.2012 82.1172 78.7207 82.1172C78.2402 82.1172 77.8125 82.0371 77.4375 81.877C77.0664 81.7168 76.752 81.4922 76.4941 81.2031C76.2402 80.9102 76.0469 80.5684 75.9141 80.1777C75.7812 79.7832 75.7148 79.3555 75.7148 78.8945ZM77.4023 78.7715V78.8945C77.4023 79.1602 77.4258 79.4082 77.4727 79.6387C77.5195 79.8691 77.5938 80.0723 77.6953 80.248C77.8008 80.4199 77.9375 80.5547 78.1055 80.6523C78.2734 80.75 78.4785 80.7988 78.7207 80.7988C78.9551 80.7988 79.1562 80.75 79.3242 80.6523C79.4922 80.5547 79.627 80.4199 79.7285 80.248C79.8301 80.0723 79.9043 79.8691 79.9512 79.6387C80.002 79.4082 80.0273 79.1602 80.0273 78.8945V78.7715C80.0273 78.5137 80.002 78.2715 79.9512 78.0449C79.9043 77.8145 79.8281 77.6113 79.7227 77.4355C79.6211 77.2559 79.4863 77.1152 79.3184 77.0137C79.1504 76.9121 78.9473 76.8613 78.709 76.8613C78.4707 76.8613 78.2676 76.9121 78.0996 77.0137C77.9355 77.1152 77.8008 77.2559 77.6953 77.4355C77.5938 77.6113 77.5195 77.8145 77.4727 78.0449C77.4258 78.2715 77.4023 78.5137 77.4023 78.7715ZM86.5078 80.4824V75.6602H88.1953V82H86.6074L86.5078 80.4824ZM86.6953 79.1816L87.1934 79.1699C87.1934 79.5918 87.1445 79.9844 87.0469 80.3477C86.9492 80.707 86.8027 81.0195 86.6074 81.2852C86.4121 81.5469 86.166 81.752 85.8691 81.9004C85.5723 82.0449 85.2227 82.1172 84.8203 82.1172C84.5117 82.1172 84.2266 82.0742 83.9648 81.9883C83.707 81.8984 83.4844 81.7598 83.2969 81.5723C83.1133 81.3809 82.9688 81.1367 82.8633 80.8398C82.7617 80.5391 82.7109 80.1777 82.7109 79.7559V75.6602H84.3984V79.7676C84.3984 79.9551 84.4199 80.1133 84.4629 80.2422C84.5098 80.3711 84.5742 80.4766 84.6562 80.5586C84.7383 80.6406 84.834 80.6992 84.9434 80.7344C85.0566 80.7695 85.1816 80.7871 85.3184 80.7871C85.666 80.7871 85.9395 80.7168 86.1387 80.5762C86.3418 80.4355 86.4844 80.2441 86.5664 80.002C86.6523 79.7559 86.6953 79.4824 86.6953 79.1816ZM91.1719 77.043V82H89.4844V75.6602H91.0723L91.1719 77.043ZM93.082 75.6191L93.0527 77.1836C92.9707 77.1719 92.8711 77.1621 92.7539 77.1543C92.6406 77.1426 92.5371 77.1367 92.4434 77.1367C92.2051 77.1367 91.998 77.168 91.8223 77.2305C91.6504 77.2891 91.5059 77.377 91.3887 77.4941C91.2754 77.6113 91.1895 77.7539 91.1309 77.9219C91.0762 78.0898 91.0449 78.2812 91.0371 78.4961L90.6973 78.3906C90.6973 77.9805 90.7383 77.6035 90.8203 77.2598C90.9023 76.9121 91.0215 76.6094 91.1777 76.3516C91.3379 76.0938 91.5332 75.8945 91.7637 75.7539C91.9941 75.6133 92.2578 75.543 92.5547 75.543C92.6484 75.543 92.7441 75.5508 92.8418 75.5664C92.9395 75.5781 93.0195 75.5957 93.082 75.6191ZM97.3066 80.248C97.3066 80.127 97.2715 80.0176 97.2012 79.9199C97.1309 79.8223 97 79.7324 96.8086 79.6504C96.6211 79.5645 96.3496 79.4863 95.9941 79.416C95.6738 79.3457 95.375 79.2578 95.0977 79.1523C94.8242 79.043 94.5859 78.9121 94.3828 78.7598C94.1836 78.6074 94.0273 78.4277 93.9141 78.2207C93.8008 78.0098 93.7441 77.7695 93.7441 77.5C93.7441 77.2344 93.8008 76.9844 93.9141 76.75C94.0312 76.5156 94.1973 76.3086 94.4121 76.1289C94.6309 75.9453 94.8965 75.8027 95.209 75.7012C95.5254 75.5957 95.8809 75.543 96.2754 75.543C96.8262 75.543 97.2988 75.6309 97.6934 75.8066C98.0918 75.9824 98.3965 76.2246 98.6074 76.5332C98.8223 76.8379 98.9297 77.1855 98.9297 77.5762H97.2422C97.2422 77.4121 97.207 77.2656 97.1367 77.1367C97.0703 77.0039 96.9648 76.9004 96.8203 76.8262C96.6797 76.748 96.4961 76.709 96.2695 76.709C96.082 76.709 95.9199 76.7422 95.7832 76.8086C95.6465 76.8711 95.541 76.957 95.4668 77.0664C95.3965 77.1719 95.3613 77.2891 95.3613 77.418C95.3613 77.5156 95.3809 77.6035 95.4199 77.6816C95.4629 77.7559 95.5312 77.8242 95.625 77.8867C95.7188 77.9492 95.8398 78.0078 95.9883 78.0625C96.1406 78.1133 96.3281 78.1602 96.5508 78.2031C97.0078 78.2969 97.416 78.4199 97.7754 78.5723C98.1348 78.7207 98.4199 78.9238 98.6309 79.1816C98.8418 79.4355 98.9473 79.7695 98.9473 80.1836C98.9473 80.4648 98.8848 80.7227 98.7598 80.957C98.6348 81.1914 98.4551 81.3965 98.2207 81.5723C97.9863 81.7441 97.7051 81.8789 97.377 81.9766C97.0527 82.0703 96.6875 82.1172 96.2812 82.1172C95.6914 82.1172 95.1914 82.0117 94.7812 81.8008C94.375 81.5898 94.0664 81.3223 93.8555 80.998C93.6484 80.6699 93.5449 80.334 93.5449 79.9902H95.1445C95.1523 80.2207 95.2109 80.4062 95.3203 80.5469C95.4336 80.6875 95.5762 80.7891 95.748 80.8516C95.9238 80.9141 96.1133 80.9453 96.3164 80.9453C96.5352 80.9453 96.7168 80.916 96.8613 80.8574C97.0059 80.7949 97.1152 80.7129 97.1895 80.6113C97.2676 80.5059 97.3066 80.3848 97.3066 80.248ZM102.961 82.1172C102.469 82.1172 102.027 82.0391 101.637 81.8828C101.246 81.7227 100.914 81.502 100.641 81.2207C100.371 80.9395 100.164 80.6133 100.02 80.2422C99.875 79.8672 99.8027 79.4688 99.8027 79.0469V78.8125C99.8027 78.332 99.8711 77.8926 100.008 77.4941C100.145 77.0957 100.34 76.75 100.594 76.457C100.852 76.1641 101.164 75.9395 101.531 75.7832C101.898 75.623 102.312 75.543 102.773 75.543C103.223 75.543 103.621 75.6172 103.969 75.7656C104.316 75.9141 104.607 76.125 104.842 76.3984C105.08 76.6719 105.26 77 105.381 77.3828C105.502 77.7617 105.562 78.1836 105.562 78.6484V79.3516H100.523V78.2266H103.904V78.0977C103.904 77.8633 103.861 77.6543 103.775 77.4707C103.693 77.2832 103.568 77.1348 103.4 77.0254C103.232 76.916 103.018 76.8613 102.756 76.8613C102.533 76.8613 102.342 76.9102 102.182 77.0078C102.021 77.1055 101.891 77.2422 101.789 77.418C101.691 77.5938 101.617 77.8008 101.566 78.0391C101.52 78.2734 101.496 78.5312 101.496 78.8125V79.0469C101.496 79.3008 101.531 79.5352 101.602 79.75C101.676 79.9648 101.779 80.1504 101.912 80.3066C102.049 80.4629 102.213 80.584 102.404 80.6699C102.6 80.7559 102.82 80.7988 103.066 80.7988C103.371 80.7988 103.654 80.7402 103.916 80.623C104.182 80.502 104.41 80.3203 104.602 80.0781L105.422 80.9688C105.289 81.1602 105.107 81.3438 104.877 81.5195C104.65 81.6953 104.377 81.8398 104.057 81.9531C103.736 82.0625 103.371 82.1172 102.961 82.1172Z" fill="#F6FBFF"/>
</svg>
