<svg width="20" height="21" viewBox="0 0 20 21" fill="none" xmlns="http://www.w3.org/2000/svg">
<path d="M6.49984 2.16675H13.4998C16.1665 2.16675 18.3332 4.33341 18.3332 7.00008V14.0001C18.3332 15.282 17.8239 16.5113 16.9175 17.4178C16.0111 18.3242 14.7817 18.8334 13.4998 18.8334H6.49984C3.83317 18.8334 1.6665 16.6667 1.6665 14.0001V7.00008C1.6665 5.7182 2.17573 4.48882 3.08215 3.5824C3.98858 2.67597 5.21796 2.16675 6.49984 2.16675ZM6.33317 3.83341C5.53752 3.83341 4.77446 4.14949 4.21185 4.71209C3.64924 5.2747 3.33317 6.03777 3.33317 6.83341V14.1667C3.33317 15.8251 4.67484 17.1667 6.33317 17.1667H13.6665C14.4622 17.1667 15.2252 16.8507 15.7878 16.2881C16.3504 15.7255 16.6665 14.9624 16.6665 14.1667V6.83341C16.6665 5.17508 15.3248 3.83341 13.6665 3.83341H6.33317ZM14.3748 5.08341C14.6511 5.08341 14.9161 5.19316 15.1114 5.38851C15.3068 5.58386 15.4165 5.84881 15.4165 6.12508C15.4165 6.40135 15.3068 6.6663 15.1114 6.86165C14.9161 7.057 14.6511 7.16675 14.3748 7.16675C14.0986 7.16675 13.8336 7.057 13.6383 6.86165C13.4429 6.6663 13.3332 6.40135 13.3332 6.12508C13.3332 5.84881 13.4429 5.58386 13.6383 5.38851C13.8336 5.19316 14.0986 5.08341 14.3748 5.08341ZM9.99984 6.33341C11.1049 6.33341 12.1647 6.7724 12.9461 7.5538C13.7275 8.3352 14.1665 9.39501 14.1665 10.5001C14.1665 11.6052 13.7275 12.665 12.9461 13.4464C12.1647 14.2278 11.1049 14.6667 9.99984 14.6667C8.89477 14.6667 7.83496 14.2278 7.05356 13.4464C6.27216 12.665 5.83317 11.6052 5.83317 10.5001C5.83317 9.39501 6.27216 8.3352 7.05356 7.5538C7.83496 6.7724 8.89477 6.33341 9.99984 6.33341ZM9.99984 8.00008C9.3368 8.00008 8.70091 8.26347 8.23207 8.73231C7.76323 9.20115 7.49984 9.83704 7.49984 10.5001C7.49984 11.1631 7.76323 11.799 8.23207 12.2678C8.70091 12.7367 9.3368 13.0001 9.99984 13.0001C10.6629 13.0001 11.2988 12.7367 11.7676 12.2678C12.2364 11.799 12.4998 11.1631 12.4998 10.5001C12.4998 9.83704 12.2364 9.20115 11.7676 8.73231C11.2988 8.26347 10.6629 8.00008 9.99984 8.00008Z" fill="black" fill-opacity="0.8"/>
</svg>
