<svg width="21" height="21" viewBox="0 0 21 21" fill="none" xmlns="http://www.w3.org/2000/svg">
<path d="M17.8504 1.75H3.24531C2.44727 1.75 1.75 2.32422 1.75 3.11289V17.7504C1.75 18.5434 2.44727 19.25 3.24531 19.25H17.8461C18.6484 19.25 19.25 18.5387 19.25 17.7504V3.11289C19.2547 2.32422 18.6484 1.75 17.8504 1.75ZM7.17461 16.3371H4.66758V8.54219H7.17461V16.3371ZM6.00781 7.35703H5.98984C5.1875 7.35703 4.66797 6.75977 4.66797 6.01211C4.66797 5.25078 5.20117 4.66758 6.02148 4.66758C6.8418 4.66758 7.34375 5.24648 7.36172 6.01211C7.36133 6.75977 6.8418 7.35703 6.00781 7.35703ZM16.3371 16.3371H13.8301V12.075C13.8301 11.0539 13.4652 10.3563 12.5582 10.3563C11.8652 10.3563 11.4551 10.825 11.2727 11.2816C11.2043 11.4457 11.1859 11.6691 11.1859 11.8973V16.3371H8.67891V8.54219H11.1859V9.62695C11.5508 9.10742 12.1207 8.35977 13.4469 8.35977C15.0926 8.35977 16.3375 9.44453 16.3375 11.7832L16.3371 16.3371Z" fill="black" fill-opacity="0.8"/>
</svg>
