<svg width="21" height="21" viewBox="0 0 21 21" fill="none" xmlns="http://www.w3.org/2000/svg">
<g clip-path="url(#clip0_1006_1272)">
<path d="M20.2024 4.61415C19.5066 4.92248 18.7591 5.13082 17.9733 5.22498C18.7841 4.73981 19.3907 3.9762 19.6799 3.07665C18.9181 3.52914 18.0844 3.84765 17.2149 4.01832C16.6302 3.39404 15.8558 2.98025 15.0119 2.84121C14.1679 2.70217 13.3017 2.84564 12.5476 3.24936C11.7936 3.65308 11.1939 4.29445 10.8417 5.0739C10.4895 5.85335 10.4045 6.72727 10.5999 7.55998C9.05633 7.48248 7.54628 7.08127 6.16778 6.3824C4.78928 5.68353 3.57313 4.70262 2.59826 3.50332C2.26493 4.07832 2.07326 4.74498 2.07326 5.45498C2.07289 6.09415 2.23029 6.72352 2.53149 7.28726C2.8327 7.851 3.2684 8.33168 3.79993 8.68665C3.18349 8.66703 2.58066 8.50047 2.0416 8.20082V8.25082C2.04153 9.14727 2.35162 10.0161 2.91925 10.71C3.48687 11.4038 4.27707 11.8799 5.15576 12.0575C4.58391 12.2122 3.98438 12.235 3.40243 12.1241C3.65034 12.8955 4.13326 13.57 4.78357 14.0533C5.43388 14.5365 6.21903 14.8043 7.0291 14.8191C5.65396 15.8987 3.95567 16.4842 2.20743 16.4816C1.89775 16.4817 1.58833 16.4636 1.28076 16.4275C3.05533 17.5685 5.12105 18.174 7.23076 18.1716C14.3724 18.1716 18.2766 12.2566 18.2766 7.12665C18.2766 6.95998 18.2724 6.79165 18.2649 6.62498C19.0243 6.07579 19.6799 5.39573 20.2008 4.61665L20.2024 4.61415Z" fill="black" fill-opacity="0.8"/>
</g>
<defs>
<clipPath id="clip0_1006_1272">
<rect width="20" height="20" fill="white" transform="translate(0.5 0.5)"/>
</clipPath>
</defs>
</svg>
