<svg width="32" height="32" viewBox="0 0 20 20" fill="none" xmlns="http://www.w3.org/2000/svg">
<path d="M9.99984 9.16699C11.1049 9.16699 12.1647 9.60598 12.9461 10.3874C13.7275 11.1688 14.1665 12.2286 14.1665 13.3337V18.3337H5.83317V13.3337C5.83317 12.2286 6.27216 11.1688 7.05356 10.3874C7.83496 9.60598 8.89477 9.16699 9.99984 9.16699ZM4.4065 11.672C4.27389 12.1193 4.19554 12.581 4.17317 13.047L4.1665 13.3337V18.3337H1.6665V14.5837C1.66634 13.865 1.93153 13.1715 2.4112 12.6363C2.89087 12.1011 3.55125 11.7619 4.26567 11.6837L4.4065 11.672ZM15.5932 11.672C16.3348 11.7172 17.0312 12.0436 17.5403 12.5847C18.0495 13.1258 18.3331 13.8407 18.3332 14.5837V18.3337H15.8332V13.3337C15.8332 12.7562 15.7498 12.1987 15.5932 11.672ZM4.58317 6.66699C5.1357 6.66699 5.66561 6.88649 6.05631 7.27719C6.44701 7.66789 6.6665 8.19779 6.6665 8.75033C6.6665 9.30286 6.44701 9.83276 6.05631 10.2235C5.66561 10.6142 5.1357 10.8337 4.58317 10.8337C4.03064 10.8337 3.50073 10.6142 3.11003 10.2235C2.71933 9.83276 2.49984 9.30286 2.49984 8.75033C2.49984 8.19779 2.71933 7.66789 3.11003 7.27719C3.50073 6.88649 4.03064 6.66699 4.58317 6.66699ZM15.4165 6.66699C15.969 6.66699 16.4989 6.88649 16.8896 7.27719C17.2803 7.66789 17.4998 8.19779 17.4998 8.75033C17.4998 9.30286 17.2803 9.83276 16.8896 10.2235C16.4989 10.6142 15.969 10.8337 15.4165 10.8337C14.864 10.8337 14.3341 10.6142 13.9434 10.2235C13.5527 9.83276 13.3332 9.30286 13.3332 8.75033C13.3332 8.19779 13.5527 7.66789 13.9434 7.27719C14.3341 6.88649 14.864 6.66699 15.4165 6.66699ZM9.99984 1.66699C10.8839 1.66699 11.7317 2.01818 12.3569 2.6433C12.982 3.26842 13.3332 4.11627 13.3332 5.00033C13.3332 5.88438 12.982 6.73223 12.3569 7.35735C11.7317 7.98247 10.8839 8.33366 9.99984 8.33366C9.11578 8.33366 8.26794 7.98247 7.64281 7.35735C7.01769 6.73223 6.6665 5.88438 6.6665 5.00033C6.6665 4.11627 7.01769 3.26842 7.64281 2.6433C8.26794 2.01818 9.11578 1.66699 9.99984 1.66699Z" fill="black" fill-opacity="0.6"/>
</svg>
