<svg width="22" height="22" viewBox="0 0 22 22" fill="none" xmlns="http://www.w3.org/2000/svg">
<path d="M1.375 11.5906H4.8125V21.2156H1.375V11.5906ZM15.8125 21.2156H6.1875V11.0385L8.27887 7.90145L8.85981 3.83351C8.908 3.50646 9.07184 3.20751 9.3216 2.99093C9.57135 2.77435 9.89048 2.65448 10.2211 2.65308H10.3125C10.8593 2.65362 11.3836 2.8711 11.7703 3.25777C12.157 3.64445 12.3745 4.16873 12.375 4.71558V8.84058H17.875C18.6041 8.84149 19.303 9.13151 19.8185 9.64704C20.3341 10.1626 20.6241 10.8615 20.625 11.5906V16.4031C20.6235 17.679 20.116 18.9022 19.2138 19.8044C18.3116 20.7066 17.0884 21.2141 15.8125 21.2156Z" fill="black"/>
</svg>
