<svg width="25" height="33" viewBox="0 0 25 33" fill="none" xmlns="http://www.w3.org/2000/svg">
<path d="M12.4998 9.25C7.2915 9.25 2.84359 12.4896 1.0415 17.0625C2.84359 21.6354 7.2915 24.875 12.4998 24.875C17.7082 24.875 22.1561 21.6354 23.9582 17.0625C22.1561 12.4896 17.7082 9.25 12.4998 9.25ZM12.4998 22.2708C9.62484 22.2708 7.2915 19.9375 7.2915 17.0625C7.2915 14.1875 9.62484 11.8542 12.4998 11.8542C15.3748 11.8542 17.7082 14.1875 17.7082 17.0625C17.7082 19.9375 15.3748 22.2708 12.4998 22.2708ZM12.4998 13.9375C10.7707 13.9375 9.37484 15.3333 9.37484 17.0625C9.37484 18.7917 10.7707 20.1875 12.4998 20.1875C14.229 20.1875 15.6248 18.7917 15.6248 17.0625C15.6248 15.3333 14.229 13.9375 12.4998 13.9375Z" fill="black"/>
</svg>
